<svg width="64" height="64" viewBox="0 0 64 64" fill="none" xmlns="http://www.w3.org/2000/svg">
<path fill-rule="evenodd" clip-rule="evenodd" d="M32 64C49.7333 64 64 49.7333 64 32C64 14.2667 49.7333 0 32 0C14.2667 0 0 14.2667 0 32C0 49.7333 14.2667 64 32 64ZM38.4 24.6667C36.8 23.0667 34.5333 22.2667 32.2667 22.2667C28.1333 22.2667 24.5333 25.0667 23.3333 28.9333C22.6667 30.9333 22.6667 33.0667 23.3333 35.0667C24.6667 38.8 28.1333 41.7333 32.2667 41.7333C34.4 41.7333 36.2667 41.2 37.7333 40.2667C39.4667 39.2 40.5333 37.3333 40.9333 35.4667H32.2667V29.3333H47.3333C47.4667 30.4 47.6 31.4667 47.6 32.5333C47.6 37.3333 45.8667 41.4667 42.8 44.2667C40.1333 46.6667 36.5333 48.1333 32.1333 48.1333C26.1333 48.1333 20.5333 44.6667 17.8667 39.3333C15.6 34.8 15.6 29.4667 17.8667 24.9333C20.5333 19.4667 26.1333 16.1333 32.1333 16.1333C36.1333 16.1333 40 17.6 42.8 20.2667L38.4 24.6667Z" fill="#212721"/>
</svg>
