<svg width="64" height="64" viewBox="0 0 64 64" fill="none" xmlns="http://www.w3.org/2000/svg">
<circle cx="32" cy="32" r="32" fill="#212721"/>
<path d="M32 36.4805C34.4743 36.4805 36.48 34.4747 36.48 32.0005C36.48 29.5263 34.4743 27.5205 32 27.5205C29.5258 27.5205 27.52 29.5263 27.52 32.0005C27.52 34.4747 29.5258 36.4805 32 36.4805Z" fill="white"/>
<path d="M38.16 18H25.84C21.514 18 18 21.514 18 25.84V38.16C18 42.486 21.514 46 25.84 46H38.16C42.486 46 46 42.486 46 38.16V25.84C46 21.514 42.486 18 38.16 18ZM32 38.72C28.29 38.72 25.28 35.71 25.28 32C25.28 28.29 28.29 25.28 32 25.28C35.71 25.28 38.72 28.29 38.72 32C38.72 35.71 35.71 38.72 32 38.72ZM39.28 26.4C38.356 26.4 37.6 25.644 37.6 24.72C37.6 23.796 38.356 23.04 39.28 23.04C40.204 23.04 40.96 23.796 40.96 24.72C40.96 25.644 40.204 26.4 39.28 26.4Z" fill="white"/>
</svg>
