<svg width="18" height="18" viewBox="0 0 18 18" fill="none" xmlns="http://www.w3.org/2000/svg">
<path fill-rule="evenodd" clip-rule="evenodd" d="M17.2509 8.17626C16.9868 8.42958 15.8406 9.44465 15.7921 9.48777C15.7795 9.49855 14.5668 10.5783 13.5895 11.4317C13.8069 12.4072 14.4878 15.465 14.6297 16.1711C14.6405 16.2178 14.6531 16.2789 14.6674 16.3435C14.8525 17.1843 14.9459 17.7503 14.5938 17.9407C14.5219 17.9802 14.4375 18 14.3423 18C14.1015 18 13.771 17.8742 13.2715 17.5886C12.9571 17.4089 11.669 16.6005 11.6151 16.5645C11.5989 16.5555 10.1096 15.6249 8.99751 14.9153C7.88724 15.6231 6.3943 16.5555 6.37993 16.5645C6.32424 16.6005 5.0379 17.4089 4.72351 17.5886C4.22406 17.8742 3.8935 18 3.65276 18C3.55754 18 3.4731 17.9802 3.40124 17.9407C3.04912 17.7503 3.14433 17.1843 3.32758 16.3435C3.34195 16.2789 3.35453 16.2196 3.36531 16.1711C3.50903 15.465 4.18993 12.409 4.40731 11.4317C3.42999 10.5765 2.21731 9.49855 2.20473 9.48777C2.15802 9.44465 1.01002 8.43138 0.74593 8.17626C0.176422 7.62471 -0.0391646 7.27797 0.00574933 6.97614C0.0668322 6.56652 0.609392 6.48029 1.42862 6.39405C1.4933 6.38866 1.55079 6.38147 1.5975 6.37609C2.28199 6.29165 5.21935 5.99521 6.14997 5.90179C6.57935 4.82743 7.68782 2.05889 7.9609 1.41391C7.97887 1.369 8.00222 1.3133 8.02737 1.25222C8.3256 0.519213 8.56275 0 8.92924 0L8.97955 0.00359317C8.98673 0.00538976 8.99392 0.00718635 9.00111 0.00898293C9.00829 0.00718635 9.01548 0.00359317 9.02266 0.00359317L9.07297 0C9.43947 0 9.67661 0.519213 9.97304 1.25042C9.99819 1.3133 10.0215 1.3672 10.0395 1.41212C10.3126 2.05709 11.4211 4.82563 11.8504 5.89999C12.7811 5.99341 15.7202 6.29165 16.4029 6.37429C16.4496 6.37968 16.5071 6.38507 16.5718 6.39225C17.3928 6.47849 17.9354 6.56652 17.9947 6.97435C18.0378 7.27797 17.8222 7.62471 17.2509 8.17626Z" fill="#FFCD00"/>
</svg>
