<svg width="64" height="64" viewBox="0 0 64 64" fill="none" xmlns="http://www.w3.org/2000/svg">
<path d="M32 0C14.3 0 0 14.3 0 32C0 49.7 14.3 64 32 64C49.7 64 64 49.7 64 32C64 14.3 49.7 0 32 0Z" fill="#212721"/>
<path d="M21.8204 13.3005C23.9204 11.7005 27.9203 11.2005 29.5203 11.5005C31.1203 11.8005 32.0203 12.7005 32.0203 13.9005L32.1204 28.2005C32.1204 29.3005 31.5204 30.3005 30.8204 30.5005C30.1204 30.6005 29.0204 30.0005 28.4204 29.0005L20.9204 16.8005C20.4204 15.8005 19.2204 15.3005 21.8204 13.3005ZM19.3204 40.4005L26.8204 37.7005C27.8204 37.3005 28.8204 36.3005 28.9204 35.4005C29.0204 34.5005 28.2204 33.4005 27.2204 33.0005L19.2204 29.8005C18.2204 29.4005 17.0204 30.4005 16.7204 31.9005C16.7204 31.9005 16.5204 37.4005 16.7204 38.6005C16.9204 39.9005 18.3204 40.8005 19.3204 40.4005ZM32.5203 41.8005C32.5203 40.7005 31.9204 39.7005 31.2204 39.6005C30.4204 39.5005 29.2203 40.2005 28.5203 41.0005L23.2204 47.3005C22.5204 48.2005 22.8204 50.2005 23.9204 50.5005L29.4204 52.4005C30.4204 52.8005 32.3204 51.7005 32.3204 50.5005L32.5203 41.8005ZM45.5204 40.3005L38.9204 38.4005C37.8204 38.1005 36.6204 38.1005 36.2204 38.5005C35.8204 38.8005 35.9204 39.9005 36.4204 40.9005L40.6204 48.5005C41.1204 49.5005 43.3204 49.3005 43.9204 48.4005C43.9204 48.4005 46.4204 44.7005 46.9204 43.3005C47.3204 41.9005 46.6204 40.6005 45.5204 40.3005ZM47.1204 29.6005C46.8204 28.6005 44.7204 25.8005 43.6204 24.8005C42.5204 23.8005 41.2203 24.0005 40.5203 24.8005L36.3204 29.9005C35.6204 30.8005 35.4204 32.1005 35.9204 32.9005C36.4204 33.7005 37.7204 34.1005 38.7204 33.9005L46.0204 32.5005C47.4204 32.2005 47.4204 30.6005 47.1204 29.6005Z" fill="white"/>
</svg>
